<?xml version="1.0" encoding="UTF-8"?>
<svg xmlns="http://www.w3.org/2000/svg" xmlns:xlink="http://www.w3.org/1999/xlink" viewBox="0 0 30 30" width="30px" height="30px">
<g id="surface13712638">
<path style=" stroke:none;fill-rule:nonzero;fill:rgb(100%,100%,100%);fill-opacity:1;" d="M 15 3 C 8.371094 3 3 8.371094 3 15 C 3 21.628906 8.371094 27 15 27 C 21.628906 27 27 21.628906 27 15 C 27 8.371094 21.628906 3 15 3 Z M 24.085938 10.84375 C 24.085938 10.9375 24.101562 11.019531 24.101562 11.121094 C 24.101562 12.164062 23.90625 13.339844 23.320312 14.808594 L 20.332031 23.445312 C 19.699219 23.847656 19.015625 24.175781 18.296875 24.429688 L 15.183594 15.898438 L 12.191406 24.589844 C 11.550781 24.402344 10.9375 24.152344 10.359375 23.847656 L 5.746094 11.222656 C 6.019531 10.558594 6.355469 9.933594 6.753906 9.351562 C 6.855469 9.355469 6.972656 9.359375 7.0625 9.359375 C 8.136719 9.359375 9.804688 9.226562 9.804688 9.226562 C 10.359375 9.195312 10.425781 10.011719 9.871094 10.074219 C 9.871094 10.074219 9.3125 10.140625 8.691406 10.175781 L 12.441406 21.324219 L 14.691406 14.566406 L 13.089844 10.171875 C 12.535156 10.140625 12.011719 10.074219 12.011719 10.074219 C 11.453125 10.042969 11.523438 9.195312 12.074219 9.226562 C 12.074219 9.226562 13.777344 9.359375 14.785156 9.359375 C 15.863281 9.359375 17.527344 9.226562 17.527344 9.226562 C 18.085938 9.195312 18.148438 10.011719 17.59375 10.074219 C 17.59375 10.074219 17.035156 10.140625 16.417969 10.175781 L 20.136719 21.238281 L 21.164062 17.804688 C 21.6875 16.46875 21.949219 15.363281 21.949219 14.480469 C 21.949219 13.207031 21.492188 12.324219 21.097656 11.640625 C 20.578125 10.792969 20.085938 10.074219 20.085938 9.226562 C 20.085938 8.378906 20.667969 7.585938 21.519531 7.433594 C 22.601562 8.367188 23.480469 9.527344 24.085938 10.84375 Z M 24.085938 10.84375 "/>
</g>
</svg>
